<svg width="16" height="16" viewBox="0 0 16 16" fill="none" xmlns="http://www.w3.org/2000/svg">
<path d="M14.7474 4.51079C14.6393 4.32943 14.5204 4.17627 14.369 4.01304C14.0898 3.71278 13.7817 3.41655 13.4466 3.12637C12.6016 2.39486 11.7349 1.73993 10.8449 1.16359C10.4053 0.879452 9.94227 0.61748 9.45221 0.37969C9.08647 0.202355 8.6973 0.0612926 8.30273 0.0230043C7.6271 -0.0414811 6.94066 0.0350954 6.26142 0.184218C5.1732 0.422008 4.12822 0.804891 3.12288 1.32884C2.62922 1.58678 2.16078 1.88704 1.71396 2.23163C1.39687 2.47547 1.09598 2.75759 0.863566 3.1042C0.858161 3.11025 0.858161 3.12032 0.861764 3.12838C1.07256 3.59792 1.37344 4.02513 1.68333 4.40802C2.22384 5.07705 2.82741 5.71586 3.47601 6.26399C4.14084 6.82421 4.81286 7.3945 5.51552 7.89225C6.05423 8.27312 6.64338 8.57136 7.28298 8.56733C7.69196 8.56733 8.10815 8.47262 8.48651 8.34163C8.87026 8.20863 9.26664 8.04943 9.67562 7.86001C10.3296 7.55773 10.98 7.23933 11.6232 6.90884C12.2052 6.60858 12.7745 6.26197 13.27 5.88514C13.5907 5.6413 13.9096 5.39142 14.2249 5.13952C14.4411 4.96622 14.6158 4.78687 14.7474 4.54102C14.7528 4.53094 14.7528 4.52087 14.7474 4.51079ZM8.17301 2.29209C7.61088 1.91324 6.99291 1.75202 6.3443 1.92734C5.9173 2.04221 5.4939 2.24977 5.09753 2.45935C5.09573 2.45935 5.09573 2.46136 5.09393 2.46136C5.09032 2.46539 5.09213 2.46741 5.09573 2.47144L10.1945 6.58037C10.1981 6.58239 10.1981 6.58642 10.1963 6.59045C10.1963 6.59246 10.1945 6.59246 10.1945 6.59246L8.92972 7.20508C8.92612 7.20508 8.92431 7.20709 8.92071 7.20709C8.91711 7.20709 8.9135 7.20709 8.9117 7.20306L5.89208 4.76974L2.87245 2.33642C2.87245 2.33441 2.87065 2.33441 2.87065 2.33239C2.86884 2.32836 2.87065 2.32433 2.87245 2.32231C3.61114 1.96361 4.34983 1.60491 5.08852 1.24823C5.55336 1.02454 6.029 0.895573 6.52987 0.827058C6.72806 0.798845 6.92805 0.786754 7.12623 0.788769C7.72079 0.7928 8.30814 0.929831 8.85945 1.21196C9.14592 1.35906 9.36933 1.5364 9.61796 1.75202C9.95308 2.04422 10.3134 2.4795 10.344 2.97926C10.3747 3.49514 10.1116 3.87601 9.7603 4.17023C9.61616 4.29114 9.45581 4.39593 9.29546 4.49064C9.13331 4.58737 8.97116 4.66999 8.82162 4.74657C8.81982 4.74858 8.81802 4.74858 8.81441 4.74858C8.80901 4.7506 8.8036 4.74858 8.8 4.74455L7.87033 3.97879C7.86853 3.97879 7.86672 3.97677 7.86672 3.97476C7.86492 3.97072 7.86853 3.96468 7.87213 3.96266L7.87393 3.96065C8.12977 3.84175 8.34958 3.74301 8.54596 3.50925C8.55137 3.50321 8.55677 3.49716 8.56218 3.4891C8.9045 3.0639 8.50272 2.51376 8.17301 2.29209Z" fill="#7404BF"/>
<path d="M8.16841 2.28679C7.60628 1.90793 6.9883 1.74672 6.33969 1.92204C5.91269 2.0369 5.4893 2.24447 5.09293 2.45404C5.09112 2.45404 5.09112 2.45606 5.08932 2.45606C5.08572 2.46009 5.08752 2.46211 5.09112 2.46614L10.1899 6.57507C10.1935 6.57709 10.1935 6.58112 10.1917 6.58515C10.1917 6.58716 10.1899 6.58716 10.1899 6.58716L8.92512 7.19977C8.92151 7.19977 8.91971 7.20179 8.91611 7.20179C8.91251 7.20179 8.9089 7.20179 8.9071 7.19776L5.88747 4.76444L2.86784 2.33112C2.86784 2.3291 2.86604 2.3291 2.86604 2.32709C2.86424 2.32306 2.86604 2.31903 2.86784 2.31701C3.60654 1.95831 4.34523 1.59961 5.08392 1.24293C5.54875 1.01924 6.0244 0.890272 6.52527 0.821756C6.72345 0.793544 6.92344 0.781453 7.12163 0.783468C7.71618 0.787498 8.30354 0.92453 8.85485 1.20665C9.14132 1.35376 9.36473 1.5311 9.61336 1.74672C9.94848 2.03892 10.3088 2.4742 10.3394 2.97396C10.3701 3.48984 10.107 3.87071 9.7557 4.16493C9.61156 4.28584 9.45121 4.39062 9.29086 4.48534C9.12871 4.58207 8.96656 4.66469 8.81702 4.74127C8.81521 4.74328 8.81341 4.74328 8.80981 4.74328C8.80441 4.7453 8.799 4.74328 8.7954 4.73925L7.86572 3.97348C7.86392 3.97348 7.86212 3.97147 7.86212 3.96945C7.86032 3.96542 7.86392 3.95938 7.86752 3.95736L7.86933 3.95535C8.12517 3.83645 8.34497 3.73771 8.54136 3.50395C8.54676 3.4979 8.55217 3.49186 8.55757 3.4838C8.89989 3.0586 8.49811 2.50845 8.16841 2.28679Z" fill="white"/>
<path d="M4.30841 14.5525C3.43279 13.7505 2.5914 12.8557 1.8347 11.9549C1.4095 11.4491 1.11222 11.0058 0.672608 10.363C0.308667 9.83296 -0.0318522 9.28484 0.00237982 8.5896C0.0113883 8.39212 0.0330085 8.19463 0.0636372 7.99916C0.121291 7.64247 0.177144 7.2878 0.232996 6.93112C0.357312 6.14318 0.452802 5.34921 0.521266 4.5512C0.521266 4.54717 0.524869 4.54314 0.528473 4.54515C0.530274 4.54515 0.530274 4.54515 0.532076 4.54717C1.26176 5.24643 1.88334 6.07467 2.61483 6.76789C3.65981 7.75734 4.70659 8.74477 5.75517 9.73221C5.86147 9.83095 5.8957 9.95992 5.91912 10.1111C5.98218 10.5242 5.98939 10.9151 5.97858 11.3202C5.96236 11.9932 5.92813 12.6643 5.87408 13.3353C5.81643 14.0648 5.74436 14.7923 5.69571 15.5218C5.69571 15.5299 5.69211 15.5319 5.6849 15.5299C5.63265 15.5137 5.58941 15.4956 5.55158 15.4775C5.10836 15.2538 4.68857 14.8991 4.30841 14.5525Z" fill="#ED6D1D"/>
<path d="M7.31537 10.0303C7.31537 10.0243 7.31897 10.0182 7.32258 10.0162C8.05586 9.59503 8.85041 9.38343 9.61793 9.05698C10.5044 8.68014 11.362 8.23882 12.1943 7.72898C12.9925 7.24131 13.7618 6.69923 14.5383 6.16924C14.7365 6.03422 14.9401 5.91129 15.1473 5.79844C15.1581 5.7924 15.1653 5.79643 15.1671 5.81053L15.9995 10.3225C16.0013 10.3306 15.9977 10.3386 15.9923 10.3427C14.5888 11.5377 13.1456 12.6661 11.6304 13.6758C10.2575 14.5927 8.82518 15.3665 7.32978 15.9992C7.32438 16.0013 7.31897 15.9992 7.31537 15.9932V10.0303Z" fill="#E50071"/>
</svg>
